<?xml version="1.0" encoding="UTF-8"?>
<svg xmlns="http://www.w3.org/2000/svg" width="180" height="51" viewBox="0 0 180 51" fill="none">
  <path d="M64.5142 41.3788V13.7425H75.4176C77.5137 13.7425 79.2994 14.1428 80.7748 14.9435C82.2502 15.7351 83.3747 16.8372 84.1484 18.2496C84.9311 19.653 85.3224 21.2723 85.3224 23.1075C85.3224 24.9428 84.9266 26.5621 84.1349 27.9655C83.3432 29.3689 82.1962 30.4619 80.6938 31.2446C79.2005 32.0273 77.3922 32.4186 75.2691 32.4186H68.3196V27.7361H74.3245C75.4491 27.7361 76.3757 27.5427 77.1044 27.1558C77.842 26.76 78.3908 26.2157 78.7507 25.523C79.1195 24.8213 79.3039 24.0162 79.3039 23.1075C79.3039 22.1899 79.1195 21.3893 78.7507 20.7055C78.3908 20.0128 77.842 19.4776 77.1044 19.0997C76.3667 18.7129 75.4311 18.5195 74.2975 18.5195H70.3572V41.3788H64.5142Z" fill="white"></path>
  <path d="M118.314 27.5607C118.314 30.5744 117.743 33.1383 116.6 35.2524C115.467 37.3665 113.919 38.9814 111.958 40.0969C110.006 41.2034 107.811 41.7567 105.373 41.7567C102.917 41.7567 100.713 41.1989 98.7607 40.0834C96.8085 38.9679 95.2657 37.353 94.1322 35.2389C92.9986 33.1248 92.4319 30.5654 92.4319 27.5607C92.4319 24.5469 92.9986 21.983 94.1322 19.8689C95.2657 17.7548 96.8085 16.1445 98.7607 15.0379C100.713 13.9224 102.917 13.3646 105.373 13.3646C107.811 13.3646 110.006 13.9224 111.958 15.0379C113.919 16.1445 115.467 17.7548 116.6 19.8689C117.743 21.983 118.314 24.5469 118.314 27.5607ZM112.39 27.5607C112.39 25.6085 112.098 23.9622 111.513 22.6217C110.937 21.2813 110.123 20.2647 109.07 19.572C108.018 18.8793 106.785 18.533 105.373 18.533C103.961 18.533 102.728 18.8793 101.675 19.572C100.623 20.2647 99.8043 21.2813 99.2195 22.6217C98.6438 23.9622 98.3559 25.6085 98.3559 27.5607C98.3559 29.5128 98.6438 31.1591 99.2195 32.4996C99.8043 33.84 100.623 34.8566 101.675 35.5493C102.728 36.242 103.961 36.5884 105.373 36.5884C106.785 36.5884 108.018 36.242 109.07 35.5493C110.123 34.8566 110.937 33.84 111.513 32.4996C112.098 31.1591 112.39 29.5128 112.39 27.5607Z" fill="white"></path>
  <path d="M143.162 41.3788L134.282 29.5983H132.285V41.3788H126.442V13.7425H132.285V24.7808H133.459L142.635 13.7425H149.909L139.127 26.5621L150.408 41.3788H143.162Z" fill="white"></path>
  <path d="M179.972 23.4179H174.062C173.954 22.6532 173.733 21.974 173.4 21.3803C173.068 20.7775 172.64 20.2647 172.119 19.8419C171.597 19.4191 170.994 19.0952 170.31 18.8703C169.636 18.6454 168.902 18.533 168.111 18.533C166.68 18.533 165.434 18.8883 164.373 19.599C163.311 20.3007 162.488 21.3263 161.903 22.6757C161.319 24.0162 161.026 25.6445 161.026 27.5607C161.026 29.5308 161.319 31.1861 161.903 32.5266C162.497 33.867 163.325 34.8791 164.386 35.5628C165.448 36.2465 166.676 36.5884 168.07 36.5884C168.853 36.5884 169.577 36.4849 170.243 36.278C170.918 36.0711 171.516 35.7697 172.038 35.3739C172.559 34.969 172.991 34.4787 173.333 33.903C173.684 33.3272 173.927 32.6705 174.062 31.9328L179.972 31.9598C179.819 33.2283 179.437 34.4518 178.825 35.6303C178.222 36.7998 177.408 37.8478 176.383 38.7744C175.366 39.6921 174.152 40.4207 172.739 40.9605C171.336 41.4913 169.748 41.7567 167.976 41.7567C165.511 41.7567 163.307 41.1989 161.364 40.0834C159.429 38.9679 157.9 37.353 156.775 35.2389C155.66 33.1248 155.102 30.5654 155.102 27.5607C155.102 24.5469 155.669 21.983 156.802 19.8689C157.936 17.7548 159.474 16.1445 161.418 15.0379C163.361 13.9224 165.547 13.3646 167.976 13.3646C169.577 13.3646 171.061 13.5895 172.429 14.0394C173.805 14.4892 175.024 15.1459 176.086 16.0095C177.147 16.8642 178.011 17.9122 178.677 19.1537C179.351 20.3952 179.783 21.8166 179.972 23.4179Z" fill="white"></path>
  <path d="M25.3212 42.2161L16.7077 34.6376C10.6153 29.2771 0.321167 33.0664 0.321167 40.645V50.5341H50.3212V20.2198L25.3212 42.2161Z" fill="white"></path>
  <path d="M25.3212 8.85199L33.9346 16.4305C40.027 21.791 50.3212 18.0017 50.3212 10.4232V0.534058H0.321167V30.8483L25.3212 8.85199Z" fill="white"></path>
</svg>
