<?xml version="1.0" encoding="UTF-8"?>
<svg xmlns="http://www.w3.org/2000/svg" width="181" height="51" viewBox="0 0 181 51" fill="none">
  <path d="M64.6495 41.5608V13.9244H75.5529C77.6491 13.9244 79.4348 14.3247 80.9102 15.1254C82.3856 15.9171 83.5101 17.0191 84.2838 18.4315C85.0664 19.8349 85.4578 21.4542 85.4578 23.2895C85.4578 25.1247 85.0619 26.744 84.2703 28.1474C83.4786 29.5508 82.3316 30.6439 80.8292 31.4265C79.3359 32.2092 77.5276 32.6005 75.4045 32.6005H68.4549V27.918H74.4599C75.5844 27.918 76.511 27.7246 77.2397 27.3378C77.9774 26.9419 78.5262 26.3977 78.886 25.705C79.2549 25.0032 79.4393 24.1981 79.4393 23.2895C79.4393 22.3719 79.2549 21.5712 78.886 20.8875C78.5262 20.1948 77.9774 19.6595 77.2397 19.2817C76.502 18.8948 75.5664 18.7014 74.4329 18.7014H70.4926V41.5608H64.6495Z" fill="#3C4BDC"></path>
  <path d="M118.449 27.7426C118.449 30.7563 117.878 33.3202 116.736 35.4344C115.602 37.5485 114.055 39.1633 112.094 40.2788C110.141 41.3854 107.946 41.9386 105.508 41.9386C103.052 41.9386 100.848 41.3808 98.8961 40.2653C96.9439 39.1498 95.4011 37.535 94.2675 35.4209C93.134 33.3067 92.5673 30.7473 92.5673 27.7426C92.5673 24.7289 93.134 22.1649 94.2675 20.0508C95.4011 17.9367 96.9439 16.3264 98.8961 15.2199C100.848 14.1043 103.052 13.5466 105.508 13.5466C107.946 13.5466 110.141 14.1043 112.094 15.2199C114.055 16.3264 115.602 17.9367 116.736 20.0508C117.878 22.1649 118.449 24.7289 118.449 27.7426ZM112.525 27.7426C112.525 25.7904 112.233 24.1441 111.648 22.8037C111.072 21.4632 110.258 20.4467 109.206 19.754C108.153 19.0612 106.921 18.7149 105.508 18.7149C104.096 18.7149 102.863 19.0612 101.811 19.754C100.758 20.4467 99.9397 21.4632 99.3549 22.8037C98.7791 24.1441 98.4913 25.7904 98.4913 27.7426C98.4913 29.6948 98.7791 31.3411 99.3549 32.6815C99.9397 34.0219 100.758 35.0385 101.811 35.7312C102.863 36.4239 104.096 36.7703 105.508 36.7703C106.921 36.7703 108.153 36.4239 109.206 35.7312C110.258 35.0385 111.072 34.0219 111.648 32.6815C112.233 31.3411 112.525 29.6948 112.525 27.7426Z" fill="#3C4BDC"></path>
  <path d="M143.297 41.5608L134.418 29.7802H132.421V41.5608H126.578V13.9244H132.421V24.9628H133.595L142.771 13.9244H150.044L139.262 26.744L150.544 41.5608H143.297Z" fill="#3C4BDC"></path>
  <path d="M180.108 23.5998H174.197C174.089 22.8352 173.869 22.1559 173.536 21.5622C173.203 20.9594 172.776 20.4467 172.254 20.0238C171.732 19.601 171.129 19.2772 170.446 19.0523C169.771 18.8273 169.038 18.7149 168.246 18.7149C166.816 18.7149 165.57 19.0702 164.508 19.7809C163.447 20.4826 162.623 21.5082 162.039 22.8577C161.454 24.1981 161.162 25.8264 161.162 27.7426C161.162 29.7128 161.454 31.3681 162.039 32.7085C162.632 34.0489 163.46 35.061 164.522 35.7447C165.583 36.4284 166.811 36.7703 168.206 36.7703C168.988 36.7703 169.712 36.6668 170.378 36.4599C171.053 36.253 171.651 35.9516 172.173 35.5558C172.695 35.151 173.127 34.6607 173.468 34.0849C173.819 33.5092 174.062 32.8524 174.197 32.1148L180.108 32.1417C179.955 33.4102 179.572 34.6337 178.961 35.8122C178.358 36.9817 177.544 38.0298 176.518 38.9564C175.502 39.874 174.287 40.6027 172.875 41.1425C171.471 41.6732 169.883 41.9386 168.111 41.9386C165.646 41.9386 163.442 41.3808 161.499 40.2653C159.565 39.1498 158.035 37.535 156.911 35.4209C155.795 33.3067 155.238 30.7473 155.238 27.7426C155.238 24.7289 155.804 22.1649 156.938 20.0508C158.071 17.9367 159.61 16.3264 161.553 15.2199C163.496 14.1043 165.682 13.5466 168.111 13.5466C169.712 13.5466 171.197 13.7715 172.564 14.2213C173.941 14.6711 175.16 15.3278 176.221 16.1915C177.283 17.0461 178.146 18.0942 178.812 19.3356C179.487 20.5771 179.919 21.9985 180.108 23.5998Z" fill="#3C4BDC"></path>
  <path d="M25.4565 42.398L16.8431 34.8195C10.7507 29.459 0.456543 33.2483 0.456543 40.8269V50.716H50.4565V20.4017L25.4565 42.398Z" fill="#3C4BDC"></path>
  <path d="M25.4565 9.0339L34.07 16.6125C40.1624 21.9729 50.4565 18.1836 50.4565 10.6051V0.715973H0.456543V31.0302L25.4565 9.0339Z" fill="#3C4BDC"></path>
</svg>
