<svg width="21" height="21" viewBox="0 0 21 21" fill="none" xmlns="http://www.w3.org/2000/svg">
<path d="M10.3301 0.199707C4.83008 0.199707 0.330078 4.69971 0.330078 10.1997C0.330078 15.6997 4.83008 20.1997 10.3301 20.1997C15.8301 20.1997 20.3301 15.6997 20.3301 10.1997C20.3301 4.69971 15.8301 0.199707 10.3301 0.199707ZM10.3301 18.3997C5.83008 18.3997 2.13008 14.6997 2.13008 10.1997C2.13008 5.69971 5.83008 1.99971 10.3301 1.99971C14.8301 1.99971 18.5301 5.69971 18.5301 10.1997C18.5301 14.6997 14.8301 18.3997 10.3301 18.3997ZM14.7301 12.3997C14.5301 12.6997 14.2301 12.8997 13.9301 12.8997C13.8301 12.8997 13.6301 12.8997 13.5301 12.7997L9.93008 10.9997C9.63008 10.7997 9.43008 10.4997 9.43008 10.1997V4.69971C9.43008 4.19971 9.83008 3.79971 10.3301 3.79971C10.8301 3.79971 11.2301 4.19971 11.2301 4.69971V9.59971L14.3301 11.1997C14.8301 11.3997 15.0301 11.9997 14.7301 12.3997Z" fill="#ABB8C3"/>
</svg>
