<svg width="21" height="21" viewBox="0 0 21 21" fill="none" xmlns="http://www.w3.org/2000/svg">
<g clip-path="url(#clip0_83_244)">
<path d="M10.3301 0.599609C4.83008 0.599609 0.330078 5.09961 0.330078 10.5996C0.330078 16.0996 4.83008 20.5996 10.3301 20.5996H15.3301V18.5996H10.3301C5.93008 18.5996 2.33008 14.9996 2.33008 10.5996C2.33008 6.19961 5.93008 2.59961 10.3301 2.59961C14.7301 2.59961 18.3301 6.19961 18.3301 10.5996V12.0996C18.3301 12.8996 17.6301 13.5996 16.8301 13.5996C16.0301 13.5996 15.3301 12.8996 15.3301 12.0996V10.5996C15.3301 7.89961 13.0301 5.59961 10.3301 5.59961C7.63008 5.59961 5.33008 7.89961 5.33008 10.5996C5.33008 13.2996 7.63008 15.5996 10.3301 15.5996C11.7301 15.5996 13.0301 14.9996 13.9301 13.9996C14.5301 14.8996 15.6301 15.5996 16.8301 15.5996C18.7301 15.5996 20.3301 13.9996 20.3301 12.0996V10.5996C20.3301 5.09961 15.8301 0.599609 10.3301 0.599609ZM10.3301 7.59961C12.0301 7.59961 13.3301 8.89961 13.3301 10.5996C13.3301 12.2996 12.0301 13.5996 10.3301 13.5996C8.63008 13.5996 7.33008 12.2996 7.33008 10.5996C7.33008 8.89961 8.63008 7.59961 10.3301 7.59961Z" fill="#ABB8C3"/>
</g>
<defs>
<clipPath id="clip0_83_244">
<rect width="20" height="20" fill="white" transform="translate(0.330078 0.599609)"/>
</clipPath>
</defs>
</svg>
