<svg width="15" height="21" viewBox="0 0 15 21" fill="none" xmlns="http://www.w3.org/2000/svg">
<path d="M7.33008 0.399902C3.43008 0.399902 0.330078 3.4999 0.330078 7.3999C0.330078 11.8999 6.33008 19.1999 6.53008 19.4999L7.33008 20.3999L8.13008 19.4999C8.33008 19.1999 14.3301 11.8999 14.3301 7.3999C14.3301 3.4999 11.2301 0.399902 7.33008 0.399902ZM7.33008 2.3999C10.1301 2.3999 12.3301 4.5999 12.3301 7.3999C12.3301 10.0999 9.23008 14.7999 7.33008 17.1999C5.43008 14.7999 2.33008 10.0999 2.33008 7.3999C2.33008 4.5999 4.53008 2.3999 7.33008 2.3999ZM7.33008 4.8999C5.93008 4.8999 4.83008 5.9999 4.83008 7.3999C4.83008 8.7999 5.93008 9.8999 7.33008 9.8999C8.73008 9.8999 9.83008 8.7999 9.83008 7.3999C9.83008 5.9999 8.73008 4.8999 7.33008 4.8999Z" fill="#ABB8C3"/>
</svg>
