<svg width="21" height="21" viewBox="0 0 21 21" fill="none" xmlns="http://www.w3.org/2000/svg">
<path d="M4.73002 0.799805C4.33002 0.799805 3.93002 0.999805 3.53002 1.1998L1.13002 3.6998C0.330022 4.3998 0.130022 5.4998 0.430022 6.3998C1.13002 8.2998 2.73002 11.8998 6.03002 15.0998C9.33002 18.3998 12.93 19.9998 14.73 20.6998C15.63 20.9998 16.63 20.7998 17.43 20.1998L19.83 17.7998C20.43 17.1998 20.43 16.0998 19.83 15.3998L16.73 12.2998C16.13 11.6998 14.93 11.6998 14.33 12.2998L12.83 13.7998C12.23 13.4998 10.93 12.7998 9.73002 11.5998C8.33002 10.2998 7.73002 8.9998 7.53002 8.3998L9.03002 6.8998C9.63002 6.2998 9.73002 5.1998 9.03002 4.4998L8.93002 4.3998L5.93002 1.2998C5.53002 0.999805 5.13002 0.799805 4.73002 0.799805ZM4.73002 2.2998C4.83002 2.2998 4.83002 2.2998 4.93002 2.3998L8.03002 5.4998L8.13002 5.5998C8.13002 5.5998 8.13002 5.6998 8.13002 5.7998L6.03002 7.6998L5.63002 8.0998L5.83002 8.5998C5.83002 8.5998 6.73002 10.9998 8.53002 12.6998L8.73002 12.7998C10.53 14.3998 12.63 15.2998 12.63 15.2998L13.13 15.4998L15.43 13.1998C15.53 13.0998 15.53 13.0998 15.63 13.1998L18.73 16.2998C18.83 16.3998 18.83 16.3998 18.73 16.4998L16.33 18.8998C15.93 19.1998 15.63 19.2998 15.13 19.0998C13.43 18.3998 10.03 16.8998 7.03002 13.8998C4.03002 10.8998 2.43002 7.39981 1.83002 5.6998C1.73002 5.3998 1.83002 4.8998 2.03002 4.6998L4.33002 2.2998C4.53002 2.3998 4.63002 2.2998 4.73002 2.2998Z" fill="#ABB8C3"/>
</svg>
