<svg width="28" height="28" viewBox="0 0 28 28" fill="none" xmlns="http://www.w3.org/2000/svg">
<path fill-rule="evenodd" clip-rule="evenodd" d="M14 16.0999C15.4852 16.0999 16.9096 15.5099 17.9598 14.4597C19.01 13.4095 19.6 11.9851 19.6 10.4999C19.6 9.01469 19.01 7.59031 17.9598 6.5401C16.9096 5.4899 15.4852 4.8999 14 4.8999C12.5148 4.8999 11.0904 5.4899 10.0402 6.5401C8.98999 7.59031 8.39999 9.01469 8.39999 10.4999C8.39999 11.9851 8.98999 13.4095 10.0402 14.4597C11.0904 15.5099 12.5148 16.0999 14 16.0999ZM14 14.6999C14.5515 14.6999 15.0977 14.5913 15.6073 14.3802C16.1168 14.1691 16.5798 13.8598 16.9698 13.4698C17.3598 13.0797 17.6692 12.6167 17.8803 12.1072C18.0914 11.5976 18.2 11.0515 18.2 10.4999C18.2 9.94835 18.0914 9.4022 17.8803 8.89263C17.6692 8.38306 17.3598 7.92006 16.9698 7.53005C16.5798 7.14005 16.1168 6.83068 15.6073 6.61961C15.0977 6.40854 14.5515 6.2999 14 6.2999C12.8861 6.2999 11.8178 6.7424 11.0301 7.53005C10.2425 8.31771 9.79999 9.38599 9.79999 10.4999C9.79999 11.6138 10.2425 12.6821 11.0301 13.4698C11.8178 14.2574 12.8861 14.6999 14 14.6999Z" fill="#3C4BDC"/>
<path fill-rule="evenodd" clip-rule="evenodd" d="M28 14C28 21.7322 21.7322 28 14 28C6.2678 28 0 21.7322 0 14C0 6.2678 6.2678 0 14 0C21.7322 0 28 6.2678 28 14ZM20.741 24.647C18.7257 25.9263 16.3871 26.6038 14 26.6C11.5557 26.6039 9.16352 25.8935 7.1176 24.556C6.9496 24.346 6.7795 24.129 6.6066 23.905C6.40677 23.6425 6.29901 23.3214 6.3 22.9915C6.3 22.2376 6.8418 21.6055 7.5663 21.4998C12.3578 20.7998 15.6569 20.86 20.4547 21.5243C20.8022 21.5747 21.1196 21.7491 21.3485 22.0153C21.5774 22.2815 21.7023 22.6215 21.7 22.9726C21.7 23.3086 21.5845 23.6348 21.3759 23.8896C21.161 24.1514 20.9489 24.4041 20.741 24.647ZM23.0895 22.7262C22.9775 21.4158 21.9828 20.3224 20.6465 20.1376C15.7353 19.4579 12.3025 19.3928 7.364 20.1145C6.02 20.3105 5.0295 21.4137 4.9119 22.7276C2.65463 20.3833 1.39555 17.2544 1.4 14C1.4 7.0413 7.0413 1.4 14 1.4C20.9587 1.4 26.6 7.0413 26.6 14C26.6045 17.2537 25.3459 20.3821 23.0895 22.7262Z" fill="#3C4BDC"/>
</svg>
